<svg id="visual" viewBox="0 0 900 600" width="900" height="600" xmlns="http://www.w3.org/2000/svg" xmlns:xlink="http://www.w3.org/1999/xlink" version="1.1"><rect x="0" y="0" width="900" height="600" fill="#c4bdb6"></rect><path d="M0 508L16.7 511C33.3 514 66.7 520 100 513.3C133.3 506.7 166.7 487.3 200 485.3C233.3 483.3 266.7 498.7 300 489C333.3 479.3 366.7 444.7 400 437.2C433.3 429.7 466.7 449.3 500 449.8C533.3 450.3 566.7 431.7 600 429.8C633.3 428 666.7 443 700 449.8C733.3 456.7 766.7 455.3 800 447.3C833.3 439.3 866.7 424.7 883.3 417.3L900 410" fill="none" stroke-linecap="round" stroke-linejoin="miter" stroke="#0288D1" stroke-width="1"></path></svg>